<svg width="89" height="164" viewBox="0 0 89 164" fill="none" xmlns="http://www.w3.org/2000/svg">
<path d="M73.636 161.364C77.1508 164.879 82.8492 164.879 86.364 161.364C89.8787 157.849 89.8787 152.151 86.364 148.636L73.636 161.364ZM86.364 15.364C89.8787 11.8492 89.8787 6.15076 86.364 2.63604C82.8492 -0.878675 77.1508 -0.878675 73.636 2.63604L86.364 15.364ZM10.8236 85.8236L17.1876 79.4597L10.8236 85.8236ZM10.8236 78.1764L17.1876 84.5403L10.8236 78.1764ZM86.364 148.636L17.1876 79.4597L4.45966 92.1876L73.636 161.364L86.364 148.636ZM17.1876 84.5403L86.364 15.364L73.636 2.63604L4.45965 71.8124L17.1876 84.5403ZM17.1876 79.4597C18.5906 80.8626 18.5906 83.1374 17.1876 84.5403L4.45965 71.8124C-1.16679 77.4389 -1.16678 86.5611 4.45966 92.1876L17.1876 79.4597Z" fill="#E2C792"/>
</svg>
