<svg width="179" height="197" viewBox="0 0 179 197" fill="none" xmlns="http://www.w3.org/2000/svg">
<path d="M107.385 89.5V143.167" stroke="#2A2B37" stroke-width="17.8889" stroke-linecap="round" stroke-linejoin="round"/>
<path d="M71.6152 89.5V143.167" stroke="#2A2B37" stroke-width="17.8889" stroke-linecap="round" stroke-linejoin="round"/>
<path d="M53.7181 44.7778V26.8889C53.7181 22.1445 55.6028 17.5944 58.9576 14.2395C62.3125 10.8847 66.8626 9 71.607 9H107.385C112.129 9 116.679 10.8847 120.034 14.2395C123.389 17.5944 125.274 22.1445 125.274 26.8889V44.7778M152.107 44.7778V170C152.107 174.744 150.222 179.295 146.867 182.649C143.513 186.004 138.963 187.889 134.218 187.889H44.7737C40.0292 187.889 35.4791 186.004 32.1243 182.649C28.7695 179.295 26.8848 174.744 26.8848 170V44.7778H152.107Z" stroke="#2A2B37" stroke-width="17.8889" stroke-linecap="round" stroke-linejoin="round"/>
<path d="M9 44.7781H26.8889H170" stroke="#2A2B37" stroke-width="17.8889" stroke-linecap="round" stroke-linejoin="round"/>
</svg>
