<svg width="314" height="94" viewBox="0 0 314 94" fill="none" xmlns="http://www.w3.org/2000/svg">
<rect y="0.963013" width="314" height="93.037" rx="11.6296" fill="#C4C4C4"/>
<path d="M112.547 61.5927L99.5244 39.9875V61.5927H92.2997V28.0921H99.5244L112.547 49.6972V28.0921H119.749V61.5927H112.547ZM147.083 51.3998H131.345C131.606 52.9491 132.25 54.1839 133.278 55.1042C134.306 56.0092 135.625 56.4617 137.236 56.4617C138.432 56.4617 139.536 56.2393 140.549 55.7945C141.577 55.3343 142.451 54.6517 143.172 53.7467L146.508 57.5891C145.634 58.847 144.353 59.9054 142.666 60.7643C140.994 61.6233 139.03 62.0528 136.775 62.0528C134.229 62.0528 132.013 61.516 130.126 60.4422C128.255 59.3685 126.813 57.9113 125.8 56.0706C124.803 54.2299 124.305 52.1975 124.305 49.9733V49.099C124.305 46.614 124.773 44.3975 125.708 42.4495C126.644 40.5014 127.994 38.9828 129.758 37.8938C131.522 36.7893 133.608 36.2371 136.016 36.2371C138.363 36.2371 140.365 36.7357 142.021 37.7327C143.678 38.7297 144.936 40.1486 145.795 41.9893C146.654 43.8146 147.083 45.9698 147.083 48.4547V51.3998ZM140.273 46.1999C140.242 44.85 139.866 43.784 139.145 43.0017C138.44 42.2194 137.381 41.8282 135.97 41.8282C134.651 41.8282 133.616 42.2654 132.864 43.1397C132.128 44.0141 131.644 45.2182 131.414 46.7521H140.273V46.1999ZM172.623 51.3998H156.885C157.146 52.9491 157.79 54.1839 158.818 55.1042C159.845 56.0092 161.165 56.4617 162.775 56.4617C163.972 56.4617 165.076 56.2393 166.088 55.7945C167.116 55.3343 167.99 54.6517 168.711 53.7467L172.048 57.5891C171.173 58.847 169.892 59.9054 168.205 60.7643C166.533 61.6233 164.57 62.0528 162.315 62.0528C159.769 62.0528 157.552 61.516 155.665 60.4422C153.794 59.3685 152.352 57.9113 151.34 56.0706C150.343 54.2299 149.844 52.1975 149.844 49.9733V49.099C149.844 46.614 150.312 44.3975 151.248 42.4495C152.184 40.5014 153.533 38.9828 155.297 37.8938C157.061 36.7893 159.147 36.2371 161.556 36.2371C163.903 36.2371 165.904 36.7357 167.561 37.7327C169.218 38.7297 170.475 40.1486 171.334 41.9893C172.193 43.8146 172.623 45.9698 172.623 48.4547V51.3998ZM165.812 46.1999C165.782 44.85 165.406 43.784 164.685 43.0017C163.979 42.2194 162.921 41.8282 161.51 41.8282C160.191 41.8282 159.155 42.2654 158.404 43.1397C157.667 44.0141 157.184 45.2182 156.954 46.7521H165.812V46.1999ZM197.817 26.2514V61.5927H191.559L191.214 58.9236C189.588 61.0098 187.486 62.0528 184.909 62.0528C182.9 62.0528 181.159 61.516 179.687 60.4422C178.229 59.3531 177.117 57.8576 176.35 55.9555C175.599 54.0535 175.223 51.883 175.223 49.4441V48.9609C175.223 46.43 175.599 44.2058 176.35 42.2884C177.117 40.371 178.229 38.8831 179.687 37.8247C181.159 36.7663 182.915 36.2371 184.955 36.2371C187.318 36.2371 189.289 37.1345 190.869 38.9291V26.2514H197.817ZM186.681 56.4387C188.629 56.4387 190.025 55.6104 190.869 53.9538V44.3362C190.071 42.6796 188.691 41.8512 186.727 41.8512C185.147 41.8512 183.989 42.4955 183.253 43.784C182.532 45.0725 182.171 46.7981 182.171 48.9609V49.4441C182.171 51.5762 182.524 53.2789 183.23 54.552C183.951 55.8098 185.101 56.4387 186.681 56.4387ZM211.116 51.6299C205.226 50.3721 202.281 47.8335 202.281 44.0141C202.281 42.6029 202.68 41.3067 203.477 40.1256C204.29 38.9445 205.456 38.0011 206.975 37.2955C208.493 36.5899 210.265 36.2371 212.29 36.2371C214.422 36.2371 216.286 36.5823 217.881 37.2725C219.476 37.9474 220.703 38.8985 221.562 40.1256C222.421 41.3374 222.851 42.7256 222.851 44.2902H215.902C215.902 43.2931 215.603 42.5185 215.005 41.9663C214.407 41.3987 213.494 41.115 212.267 41.115C211.254 41.115 210.441 41.3527 209.828 41.8282C209.23 42.3037 208.93 42.9173 208.93 43.6689C208.93 44.3899 209.268 44.9727 209.943 45.4176C210.633 45.8624 211.799 46.2382 213.44 46.545C215.404 46.9131 217.068 47.3963 218.433 47.9945C219.798 48.5774 220.88 49.3904 221.677 50.4335C222.49 51.4765 222.897 52.8034 222.897 54.414C222.897 55.8712 222.46 57.1827 221.585 58.3484C220.726 59.4989 219.491 60.4039 217.881 61.0635C216.286 61.723 214.43 62.0528 212.313 62.0528C210.073 62.0528 208.133 61.6463 206.492 60.8334C204.866 60.0051 203.623 58.9467 202.764 57.6582C201.921 56.3697 201.499 55.0275 201.499 53.6317H208.056C208.102 54.8281 208.532 55.7178 209.345 56.3007C210.158 56.8682 211.201 57.152 212.474 57.152C213.655 57.152 214.56 56.9296 215.189 56.4847C215.833 56.0246 216.155 55.411 216.155 54.644C216.155 54.1685 216.009 53.7697 215.718 53.4476C215.442 53.1101 214.936 52.7957 214.199 52.5042C213.479 52.2128 212.451 51.9214 211.116 51.6299Z" fill="#2A2B37"/>
</svg>
