<svg width="314" height="93" viewBox="0 0 314 93" fill="none" xmlns="http://www.w3.org/2000/svg">
<rect width="313.875" height="93" rx="11.625" fill="#E2C792"/>
<path d="M86.6971 46.6643C84.4278 45.9283 82.4729 45.1157 80.8322 44.2264C79.2069 43.3217 77.9036 42.1948 76.9223 40.8455C75.941 39.4961 75.4504 37.8939 75.4504 36.0386C75.4504 34.1833 75.9793 32.5503 77.0373 31.1397C78.1106 29.7137 79.5903 28.6174 81.4762 27.8507C83.3622 27.0688 85.5165 26.6778 87.9391 26.6778C90.377 26.6778 92.5313 27.1148 94.4019 27.9887C96.2725 28.8474 97.7215 30.0664 98.7488 31.6457C99.7761 33.2096 100.29 35.0036 100.29 37.0275H93.0909C93.0909 35.6169 92.6386 34.4976 91.734 33.6696C90.8447 32.8263 89.5337 32.4046 87.8011 32.4046C86.6971 32.4046 85.7541 32.5656 84.9721 32.8876C84.2055 33.2096 83.6228 33.6543 83.2242 34.2216C82.8408 34.7736 82.6492 35.3946 82.6492 36.0846C82.6492 37.1119 83.1782 37.9858 84.2362 38.7065C85.2941 39.4118 86.9348 40.1095 89.158 40.7995C92.9146 41.9494 95.7052 43.3907 97.5298 45.1234C99.3698 46.8406 100.29 49.0486 100.29 51.7472C100.29 53.6945 99.7915 55.3735 98.7948 56.7841C97.7982 58.1794 96.3799 59.245 94.5399 59.981C92.7153 60.717 90.5687 61.085 88.1001 61.085C85.7388 61.085 83.5155 60.6787 81.4302 59.866C79.3603 59.0534 77.6736 57.8114 76.3703 56.1401C75.067 54.4535 74.4154 52.3912 74.4154 49.9532H81.6602C81.6602 51.8699 82.2122 53.2575 83.3162 54.1161C84.4355 54.9595 86.0301 55.3811 88.1001 55.3811C89.7407 55.3811 90.975 55.0515 91.803 54.3921C92.6463 53.7328 93.0679 52.8665 93.0679 51.7932C93.0679 50.9959 92.8993 50.3289 92.562 49.7922C92.2246 49.2556 91.6036 48.7419 90.699 48.2513C89.7944 47.7606 88.4604 47.2316 86.6971 46.6643ZM124.715 54.4841C124.715 55.8948 124.8 57.0371 124.968 57.9111C125.137 58.785 125.39 59.5594 125.727 60.234V60.625H118.758C118.452 60.027 118.229 59.2834 118.091 58.3941C116.512 60.188 114.434 61.085 111.859 61.085C110.295 61.085 108.869 60.763 107.581 60.119C106.293 59.475 105.273 58.5857 104.522 57.4511C103.786 56.3164 103.418 55.0361 103.418 53.6102C103.418 50.9882 104.391 48.9719 106.339 47.5613C108.286 46.1353 111.153 45.4223 114.94 45.4223H117.769V44.0194C117.769 42.8694 117.478 41.9801 116.895 41.3514C116.313 40.7075 115.439 40.3855 114.273 40.3855C113.215 40.3855 112.388 40.6385 111.79 41.1444C111.207 41.6351 110.916 42.3404 110.916 43.2604H103.97C103.97 41.7731 104.407 40.4238 105.281 39.2125C106.17 38.0012 107.42 37.0429 109.03 36.3376C110.655 35.6322 112.526 35.2796 114.641 35.2796C116.604 35.2796 118.344 35.6092 119.862 36.2686C121.38 36.9279 122.569 37.9169 123.427 39.2355C124.286 40.5541 124.715 42.1641 124.715 44.0654V54.4841ZM113.422 55.8181C114.434 55.8181 115.324 55.6034 116.09 55.1741C116.857 54.7295 117.417 54.1928 117.769 53.5642V49.4013H115.124C113.514 49.4013 112.311 49.7539 111.514 50.4592C110.732 51.1492 110.341 52.0539 110.341 53.1732C110.341 53.9552 110.617 54.5915 111.169 55.0821C111.736 55.5728 112.487 55.8181 113.422 55.8181ZM150.406 35.7396L142.08 60.625H137.71H135.341L126.992 35.7396H134.283L138.722 52.1842L143.138 35.7396H150.406ZM157.006 25.7348C158.172 25.7348 159.107 26.0721 159.812 26.7468C160.533 27.4061 160.893 28.2571 160.893 29.2997C160.893 30.3424 160.533 31.201 159.812 31.8757C159.107 32.535 158.172 32.8646 157.006 32.8646C155.857 32.8646 154.921 32.535 154.201 31.8757C153.495 31.201 153.143 30.3424 153.143 29.2997C153.143 28.2571 153.495 27.4061 154.201 26.7468C154.921 26.0721 155.857 25.7348 157.006 25.7348ZM153.557 60.625V35.7396H160.525V60.625H153.557ZM179.592 35.2796C182.091 35.2796 184.023 36.0309 185.388 37.5335C186.752 39.0208 187.435 41.4588 187.435 44.8474V60.625H180.489V44.8244C180.489 43.3524 180.175 42.3327 179.546 41.7654C178.917 41.1828 177.944 40.8914 176.625 40.8914C175.72 40.8914 174.931 41.0831 174.256 41.4664C173.597 41.8498 173.06 42.3941 172.646 43.0994V60.625H165.7V35.7396H172.209L172.439 38.6145C173.313 37.5259 174.356 36.6979 175.567 36.1306C176.778 35.5632 178.12 35.2796 179.592 35.2796ZM214.321 35.7396V59.728C214.321 61.9666 213.815 63.8909 212.803 65.5009C211.791 67.1109 210.365 68.3298 208.525 69.1578C206.701 70.0011 204.577 70.4228 202.154 70.4228C200.468 70.4228 198.751 70.0855 197.003 69.4108C195.255 68.7515 193.89 67.8162 192.909 66.6049L195.922 62.35C196.688 63.1933 197.578 63.8526 198.59 64.3279C199.602 64.8032 200.698 65.0409 201.878 65.0409C203.611 65.0409 204.953 64.5732 205.903 63.6379C206.869 62.718 207.352 61.4146 207.352 59.728V58.486C205.819 60.2187 203.841 61.085 201.418 61.085C199.395 61.085 197.616 60.5483 196.083 59.475C194.565 58.3864 193.392 56.8838 192.564 54.9671C191.751 53.0505 191.345 50.8886 191.345 48.4813V47.9983C191.345 45.4837 191.751 43.2681 192.564 41.3514C193.392 39.4348 194.565 37.9475 196.083 36.8895C197.616 35.8162 199.41 35.2796 201.464 35.2796C204.163 35.2796 206.264 36.1996 207.766 38.0395L208.019 35.7396H214.321ZM203.166 55.4731C205.098 55.4731 206.494 54.7601 207.352 53.3342V43.0074C206.509 41.5968 205.129 40.8914 203.212 40.8914C201.618 40.8914 200.391 41.5508 199.533 42.8694C198.689 44.188 198.268 45.8977 198.268 47.9983V48.4813C198.268 50.5512 198.682 52.2379 199.51 53.5412C200.338 54.8291 201.556 55.4731 203.166 55.4731ZM227.569 50.6662C221.681 49.4089 218.737 46.8713 218.737 43.0534C218.737 41.6428 219.136 40.3471 219.933 39.1665C220.746 37.9858 221.911 37.0429 223.429 36.3376C224.947 35.6322 226.718 35.2796 228.742 35.2796C230.873 35.2796 232.736 35.6246 234.331 36.3146C235.925 36.9892 237.152 37.9398 238.011 39.1665C238.869 40.3778 239.299 41.7654 239.299 43.3294H232.353C232.353 42.3327 232.054 41.5584 231.456 41.0064C230.858 40.4391 229.946 40.1555 228.719 40.1555C227.707 40.1555 226.894 40.3931 226.281 40.8684C225.683 41.3438 225.384 41.9571 225.384 42.7084C225.384 43.4291 225.721 44.0117 226.396 44.4564C227.086 44.901 228.251 45.2767 229.892 45.5833C231.854 45.9513 233.518 46.4343 234.883 47.0323C236.247 47.615 237.328 48.4276 238.126 49.4703C238.938 50.5129 239.345 51.8392 239.345 53.4492C239.345 54.9058 238.908 56.2168 238.034 57.3821C237.175 58.532 235.941 59.4367 234.331 60.096C232.736 60.7553 230.881 61.085 228.765 61.085C226.526 61.085 224.587 60.6787 222.946 59.866C221.321 59.038 220.079 57.9801 219.22 56.6921C218.377 55.4041 217.955 54.0625 217.955 52.6672H224.51C224.556 53.8632 224.985 54.7525 225.798 55.3351C226.611 55.9024 227.653 56.1861 228.926 56.1861C230.106 56.1861 231.011 55.9638 231.64 55.5191C232.284 55.0591 232.606 54.4458 232.606 53.6792C232.606 53.2038 232.46 52.8052 232.169 52.4832C231.893 52.1459 231.387 51.8315 230.651 51.5402C229.93 51.2489 228.903 50.9576 227.569 50.6662Z" fill="#2A2B37"/>
</svg>
