<svg width="311" height="93" viewBox="0 0 311 93" fill="none" xmlns="http://www.w3.org/2000/svg">
<rect y="0.851807" width="311" height="92.1481" rx="11.5185" fill="white"/>
<path d="M130.09 28.1899L122.821 61.3704H118.24H115.574L110.424 39.8121L105.296 61.3704H101.194H98.0494L90.757 28.1899H97.8671L102.174 51.2521L107.393 28.1899H111.199H113.455L118.696 51.2521L122.98 28.1899H130.09ZM152.446 55.2857C152.446 56.6835 152.53 57.8153 152.697 58.6813C152.864 59.5473 153.115 60.3145 153.449 60.983V61.3704H146.544C146.24 60.7779 146.02 60.041 145.883 59.1598C144.318 60.9374 142.26 61.8261 139.707 61.8261C138.158 61.8261 136.745 61.5071 135.469 60.869C134.192 60.2309 133.182 59.3498 132.438 58.2255C131.708 57.1013 131.344 55.8327 131.344 54.4198C131.344 51.8219 132.309 49.824 134.238 48.4263C136.167 47.0134 139.009 46.307 142.761 46.307H145.564V44.9168C145.564 43.7774 145.275 42.8962 144.698 42.2733C144.121 41.6353 143.255 41.3162 142.1 41.3162C141.052 41.3162 140.232 41.5669 139.639 42.0682C139.062 42.5544 138.773 43.2533 138.773 44.1648H131.891C131.891 42.6911 132.324 41.3542 133.19 40.154C134.071 38.9538 135.309 38.0042 136.904 37.3054C138.515 36.6065 140.368 36.2571 142.465 36.2571C144.409 36.2571 146.134 36.5837 147.638 37.237C149.142 37.8903 150.319 38.8702 151.17 40.1768C152.021 41.4833 152.446 43.0785 152.446 44.9624V55.2857ZM141.257 56.6075C142.26 56.6075 143.141 56.3948 143.901 55.9694C144.66 55.5288 145.215 54.9971 145.564 54.3742V50.2494H142.943C141.348 50.2494 140.156 50.5989 139.366 51.2977C138.591 51.9814 138.203 52.8777 138.203 53.9868C138.203 54.7616 138.477 55.3921 139.024 55.8783C139.586 56.3644 140.33 56.6075 141.257 56.6075ZM170.951 36.2571C173.427 36.2571 175.341 37.0015 176.694 38.4904C178.046 39.9641 178.722 42.3797 178.722 45.7372V61.3704H171.84V45.7145C171.84 44.256 171.528 43.2457 170.905 42.6835C170.282 42.1062 169.318 41.8176 168.011 41.8176C167.115 41.8176 166.332 42.0075 165.664 42.3873C165.011 42.7671 164.479 43.3064 164.069 44.0053V61.3704H157.186V36.7129H163.636L163.863 39.5615C164.729 38.4828 165.763 37.6624 166.963 37.1003C168.163 36.5382 169.492 36.2571 170.951 36.2571ZM194.218 56.1745C194.963 56.1745 195.601 56.1213 196.132 56.015V61.1881C194.947 61.6134 193.595 61.8261 192.076 61.8261C187.245 61.8261 184.829 59.3649 184.829 54.4426V41.7264H181.343V36.7129H184.829V30.6055H191.711V36.7129H195.859V41.7264H191.711V53.645C191.711 54.6173 191.901 55.2857 192.281 55.6504C192.661 55.9998 193.307 56.1745 194.218 56.1745ZM207.641 51.5028C201.807 50.257 198.89 47.7427 198.89 43.9597C198.89 42.562 199.285 41.2782 200.075 40.1084C200.88 38.9386 202.035 38.0042 203.539 37.3054C205.043 36.6065 206.798 36.2571 208.803 36.2571C210.915 36.2571 212.761 36.5989 214.341 37.2826C215.921 37.9511 217.136 38.893 217.987 40.1084C218.838 41.3086 219.263 42.6835 219.263 44.2332H212.381C212.381 43.2457 212.085 42.4784 211.492 41.9315C210.9 41.3694 209.996 41.0883 208.78 41.0883C207.778 41.0883 206.972 41.3238 206.365 41.7948C205.772 42.2657 205.476 42.8734 205.476 43.6179C205.476 44.3319 205.81 44.9092 206.479 45.3498C207.162 45.7904 208.317 46.1626 209.942 46.4665C211.887 46.8311 213.536 47.3097 214.888 47.9022C216.24 48.4795 217.311 49.2847 218.101 50.3178C218.906 51.3509 219.309 52.665 219.309 54.2603C219.309 55.7035 218.876 57.0025 218.01 58.1571C217.159 59.2966 215.936 60.1929 214.341 60.8462C212.761 61.4995 210.922 61.8261 208.826 61.8261C206.608 61.8261 204.686 61.4235 203.06 60.6183C201.45 59.7979 200.219 58.7496 199.368 57.4735C198.533 56.1973 198.115 54.868 198.115 53.4854H204.61C204.655 54.6705 205.081 55.5516 205.886 56.1289C206.691 56.6911 207.724 56.9721 208.985 56.9721C210.155 56.9721 211.052 56.7518 211.674 56.3112C212.313 55.8555 212.632 55.2478 212.632 54.4881C212.632 54.0172 212.487 53.6222 212.199 53.3031C211.925 52.9689 211.424 52.6574 210.695 52.3688C209.98 52.0801 208.963 51.7915 207.641 51.5028Z" fill="#2A2B37"/>
</svg>
