<svg width="183" height="184" viewBox="0 0 183 184" fill="none" xmlns="http://www.w3.org/2000/svg">
<path d="M32.2512 16.2306L91.5432 75.5227L150.591 16.4746C151.626 15.3732 152.873 14.4921 154.256 13.8841C155.64 13.2762 157.132 12.9539 158.643 12.9366C161.879 12.9366 164.982 14.222 167.27 16.5099C169.558 18.7979 170.843 21.901 170.843 25.1366C170.872 26.6324 170.594 28.1182 170.028 29.5028C169.461 30.8874 168.618 32.1417 167.549 33.1886L107.891 92.2367L167.549 151.895C169.56 153.862 170.739 156.526 170.843 159.337C170.843 162.572 169.558 165.675 167.27 167.963C164.982 170.251 161.879 171.537 158.643 171.537C157.088 171.601 155.537 171.342 154.088 170.775C152.639 170.208 151.323 169.345 150.225 168.243L91.5432 108.951L32.3732 168.121C31.3424 169.185 30.1109 170.035 28.7498 170.622C27.3888 171.208 25.9251 171.519 24.4432 171.537C21.2076 171.537 18.1044 170.251 15.8165 167.963C13.5285 165.675 12.2432 162.572 12.2432 159.337C12.2148 157.841 12.4923 156.355 13.0587 154.97C13.6251 153.586 14.4686 152.332 15.5372 151.285L75.1952 92.2367L15.5372 32.5786C13.5265 30.6115 12.3474 27.9477 12.2432 25.1366C12.2432 21.901 13.5285 18.7979 15.8165 16.5099C18.1044 14.222 21.2076 12.9366 24.4432 12.9366C27.3712 12.9732 30.1772 14.1566 32.2512 16.2306Z" fill="#E2C792"/>
</svg>
