<svg width="166" height="166" viewBox="0 0 166 166" fill="none" xmlns="http://www.w3.org/2000/svg">
<path d="M117.588 20.7509C119.405 18.9343 121.561 17.4932 123.935 16.5101C126.308 15.527 128.852 15.0209 131.421 15.0209C133.99 15.0209 136.534 15.527 138.908 16.5101C141.281 17.4932 143.438 18.9343 145.255 20.7509C147.071 22.5675 148.512 24.7241 149.495 27.0977C150.478 29.4712 150.984 32.0151 150.984 34.5842C150.984 37.1533 150.478 39.6972 149.495 42.0708C148.512 44.4443 147.071 46.6009 145.255 48.4176L51.8796 141.793L13.8379 152.168L24.2129 114.126L117.588 20.7509Z" stroke="#2A2B37" stroke-width="13.8333" stroke-linecap="round" stroke-linejoin="round"/>
</svg>
